<svg width="38" height="10" viewBox="0 0 38 10" fill="none" xmlns="http://www.w3.org/2000/svg">
<path d="M37.9103 0.403866C37.7756 0.22437 37.641 0.0897481 36.9679 0.0448741C36.7884 0.0448741 36.2499 0 35.3076 0C32.8395 0 31.1343 0.762857 30.2817 2.2437C30.5061 0.762857 29.0701 0 25.9289 0C22.2492 0 19.9158 1.48084 18.9734 4.48739C18.6145 5.60924 18.6145 6.50672 18.8837 7.2247H17.9862C17.3131 7.26958 16.4156 7.31445 15.8323 7.31445C14.4861 7.31445 13.6335 7.09008 13.3193 6.64134C13.0501 6.23748 13.0501 5.47462 13.4091 4.35277C13.9924 2.51294 15.3835 1.70521 17.6272 1.70521C18.794 1.70521 19.9158 1.83983 19.9158 1.83983C20.0504 1.83983 20.1402 1.66034 20.1402 1.52571L20.0953 1.39109L20.0056 0.762857C19.9607 0.358992 19.6466 0.134622 19.1081 0.0448741C18.6145 1.70512e-07 18.2106 0 17.6721 0H17.6272C14.7104 0 12.6462 0.987227 11.5244 2.87193C11.9282 0.942352 10.582 0 7.48572 0C5.73564 0 4.47917 0.044874 3.76118 0.134622C3.17782 0.22437 2.81883 0.448739 2.68421 0.852605L2.41497 1.66034C2.37009 1.79496 2.45984 1.88471 2.63934 1.88471C2.77396 1.88471 3.31244 1.79496 4.20992 1.75008C5.42152 1.66034 6.27412 1.61546 6.85749 1.61546C8.5627 1.61546 9.32555 2.0642 9.05631 2.91681C9.01144 3.0963 8.87681 3.23092 8.65244 3.2758C7.03698 3.54504 5.73564 3.72454 4.79328 3.85916C2.10085 4.21815 0.53026 5.02588 0.126395 6.3721C-0.456966 8.21193 0.979 9.10941 4.43429 9.10941C6.1395 9.10941 7.62034 9.01966 8.78707 8.79529C9.46017 8.66067 9.81917 8.52605 9.95379 8.07731L10.582 6.01311C10.5371 8.07731 11.9282 9.10941 14.8899 9.10941C16.1464 9.10941 17.358 9.06454 17.9413 8.97479C18.5247 8.88504 18.8388 8.75042 18.9734 8.30168L19.1081 7.67344C19.7363 8.66067 21.1274 9.15428 23.2365 9.15428C25.4802 9.15428 26.7815 9.10941 27.1405 8.97479C27.4546 8.88504 27.6341 8.70554 27.7239 8.48117C27.7239 8.4363 27.7239 8.39143 27.7687 8.34655L28.038 7.49395C28.0829 7.35933 27.9931 7.26958 27.8136 7.26958L26.3777 7.35933C25.4353 7.4042 24.6724 7.44907 24.134 7.44907C23.1019 7.44907 22.4287 7.35933 22.0249 7.2247C21.4415 7.00033 21.1723 6.59647 21.2171 5.92336L25.7494 5.34C27.7687 5.07076 29.1598 4.44252 29.8329 3.45529L28.2624 8.70554C28.2175 8.79529 28.2624 8.88504 28.3072 8.92991C28.3521 8.97479 28.4419 9.01966 28.6213 9.01966H30.5061C30.8202 9.01966 30.9548 8.84017 30.9997 8.70554L32.66 2.91681C32.8844 2.15395 33.5575 1.79496 34.8139 1.79496C35.9358 1.79496 36.7435 1.79496 37.282 1.83983H37.3269C37.4166 1.83983 37.5961 1.79496 37.7308 1.57059L38 0.762857C38 0.628236 38 0.493614 37.9103 0.403866ZM7.66522 7.31445C7.08186 7.4042 6.22925 7.44907 5.15228 7.44907C3.2227 7.44907 2.41497 7.04521 2.63934 6.28235C2.81883 5.74386 3.31245 5.38487 4.12018 5.29513L8.47295 4.71176L7.66522 7.31445ZM27.7239 2.64756C27.5444 3.23092 26.6918 3.63479 25.1661 3.85916L21.5313 4.35277L21.621 4.03865C21.9351 3.05143 22.339 2.42319 22.8775 2.0642C23.416 1.70521 24.3134 1.52571 25.5699 1.52571C27.2303 1.57059 27.9482 1.92958 27.7239 2.64756Z" fill="#83B81A"/>
</svg>
