<svg width="18" height="21" viewBox="0 0 18 21" fill="none" xmlns="http://www.w3.org/2000/svg">
<g clip-path="url(#clip0_245_387)">
<path d="M8.87592 5.04515C10.0276 5.04515 11.0379 4.59544 11.9068 3.69599C12.7757 2.79654 13.2102 1.75063 13.2102 0.55828C13.2102 0.427326 13.1998 0.241232 13.1792 0C13.0274 0.020677 12.9137 0.0379079 12.8378 0.0516926C11.7758 0.203324 10.8413 0.723696 10.0345 1.61279C9.22763 2.5019 8.82421 3.45304 8.82421 4.46622C8.82421 4.58337 8.84144 4.77637 8.87592 5.04515ZM13.0033 20.8526C13.8239 20.8526 14.7308 20.2909 15.7239 19.1675C16.7169 18.044 17.4755 16.7241 17.9996 15.2079C16.048 14.2016 15.0722 12.7576 15.0722 10.876C15.0722 9.3046 15.8618 7.96062 17.441 6.84406C16.3445 5.47248 14.8963 4.78669 13.0964 4.78669C12.3378 4.78669 11.6448 4.90041 11.0172 5.12786L10.6241 5.2726L10.0965 5.47937C9.75173 5.61033 9.43795 5.67583 9.15522 5.67583C8.93453 5.67583 8.64487 5.59999 8.2863 5.44836L7.88285 5.28294L7.50013 5.12786C6.94152 4.89352 6.34156 4.77635 5.70022 4.77635C3.98306 4.77635 2.60382 5.35531 1.56248 6.51322C0.521146 7.67112 0.000488281 9.19777 0.000488281 11.0931C0.000488281 13.7605 0.834923 16.2245 2.50381 18.4851C3.66239 20.0635 4.72096 20.8526 5.67952 20.8526C6.08641 20.8526 6.48983 20.7734 6.88981 20.6149L7.39668 20.4081L7.80012 20.2633C8.3656 20.0635 8.88626 19.9635 9.36209 19.9635C9.86552 19.9635 10.4448 20.0911 11.1 20.3461L11.4206 20.4701C12.0895 20.7251 12.6171 20.8526 13.0033 20.8526Z" fill="black"/>
</g>
<defs>
<clipPath id="clip0_245_387">
<rect width="18" height="20.8526" fill="white"/>
</clipPath>
</defs>
</svg>
