<svg width="39" height="8" viewBox="0 0 39 8" fill="none" xmlns="http://www.w3.org/2000/svg">
<path d="M36.3869 1.01313C36.3869 0.555347 36.7336 0.180113 37.1581 0.180113C37.3632 0.180113 37.5543 0.270169 37.7029 0.420263C37.8514 0.577861 37.9292 0.787992 37.9292 1.00563C37.9292 1.22326 37.8514 1.4334 37.7029 1.59099C37.5543 1.74859 37.3632 1.83865 37.1581 1.83865C36.7336 1.83865 36.3869 1.47092 36.3869 1.01313ZM36.3232 1.01313C36.3232 1.50844 36.6982 1.9137 37.1651 1.9137C37.3915 1.9137 37.5967 1.82364 37.7524 1.65103C37.908 1.47842 38 1.25328 38 1.01313C38 0.772983 37.9151 0.547842 37.7524 0.375234C37.5896 0.202627 37.3845 0.11257 37.1651 0.11257C36.6982 0.11257 36.3232 0.517824 36.3232 1.01313ZM36.8468 1.54597H36.967V1.1257H37.2359C37.2783 1.1257 37.3137 1.1257 37.342 1.14071C37.3774 1.16323 37.3986 1.20826 37.4057 1.26829L37.4198 1.4334V1.50844C37.4269 1.52345 37.4269 1.53096 37.434 1.53846H37.5826V1.51595C37.5613 1.50844 37.5543 1.48593 37.5472 1.45591C37.5401 1.4409 37.5401 1.41088 37.5401 1.37336L37.533 1.24578C37.533 1.18574 37.5189 1.14822 37.5047 1.1257C37.4835 1.10319 37.4552 1.08068 37.4198 1.06567C37.4623 1.04315 37.4906 1.01313 37.5118 0.97561C37.5331 0.938086 37.5401 0.893058 37.5401 0.833021C37.5401 0.72045 37.4977 0.645403 37.4198 0.600375C37.3774 0.577861 37.3208 0.570356 37.2571 0.570356H36.8538L36.8468 1.54597ZM36.96 1.01313V0.675422H37.243C37.2854 0.675422 37.3208 0.682927 37.342 0.697936C37.3845 0.72045 37.4057 0.772983 37.4057 0.840525C37.4057 0.908067 37.3915 0.953096 37.3562 0.97561C37.3279 0.998124 37.2854 1.01313 37.2288 1.01313H36.96ZM3.43847 2.25141L0 7.98499H2.34891L5.66003 2.50657L3.43847 2.25141ZM17.5956 2.12383V0H10.9097C9.99702 0.0600375 9.60082 0.525328 9.30367 0.855535C8.98529 1.20826 8.80842 1.95122 8.80842 1.95122V0.0150094H5.24967C4.98082 0.0150094 4.72612 0.135084 4.5351 0.420263C4.33699 0.697936 3.52337 2.12383 3.52337 2.12383H17.5956ZM35.7784 2.12383V0H28.6256C27.72 0.0600375 27.3167 0.525328 27.0195 0.855535C26.7012 1.20826 26.5243 1.95122 26.5243 1.95122V2.12383H35.7784ZM19.9445 0.00750469H17.9423V2.12383H19.9445V0.00750469ZM26.5031 0.00750469H24.5079V2.12383H26.5031V0.00750469ZM26.5031 2.88931L24.5362 2.76173V5.21576C24.5362 5.21576 24.5291 5.9212 23.8853 5.9212H20.5176C20.5176 5.9212 19.9445 5.86867 19.9445 5.22326V2.43152L17.9635 2.28143V6.04128C18.2819 7.8424 19.8172 7.98499 19.8172 7.98499C19.8172 7.98499 19.9728 7.99249 20.0011 8H24.5645C24.5645 8 26.5172 7.8349 26.5172 5.83865L26.5031 2.88931ZM6.77081 7.98499H16.124C17.7513 7.63977 17.9211 6.06379 17.9211 6.06379C17.9989 5.5985 17.9564 5.21576 17.9564 5.21576C17.9069 4.90056 17.3409 3.50469 16.124 3.38461C15.3953 3.30957 8.90747 2.76173 8.90747 2.76173C9.03482 3.45216 9.32489 3.80488 9.52299 4C9.9758 4.45779 10.6904 4.59287 10.6904 4.59287L15.6924 5.03565C15.8481 5.04315 16.1381 5.08818 16.1311 5.49343C16.1311 5.54597 16.0886 5.89869 15.7207 5.89869H8.72352V2.74672L6.77788 2.59662C6.77081 2.59662 6.77081 7.98499 6.77081 7.98499ZM26.5172 8H33.6772C35.4742 7.88743 35.7289 6.0788 35.7289 6.0788C35.7926 5.606 35.7431 5.21576 35.7431 5.21576C35.6935 4.78799 35.1205 3.49719 33.8965 3.36961C33.1748 3.29456 26.6446 2.88931 26.6446 2.88931C26.8356 3.60225 27.0974 3.81989 27.2955 4.01501C27.7483 4.4803 28.4204 4.58537 28.4204 4.58537C28.5902 4.60037 33.472 5.03565 33.472 5.03565C33.6276 5.04315 33.946 5.05816 33.946 5.46341C33.946 5.58349 33.8894 5.71107 33.8187 5.77861C33.8187 5.77861 33.6489 5.87617 33.4861 5.87617H26.5384L26.5172 8Z" fill="#00539B"/>
</svg>
