<svg width="25" height="24" viewBox="0 0 25 24" fill="none" xmlns="http://www.w3.org/2000/svg">
<path d="M18.3135 10.79V14.79C18.3135 15.05 18.3035 15.3 18.2735 15.54C18.0435 18.24 16.4535 19.58 13.5235 19.58H13.1235C12.8735 19.58 12.6335 19.7 12.4835 19.9L11.2835 21.5C10.7535 22.21 9.89349 22.21 9.36349 21.5L8.16348 19.9C8.03348 19.73 7.7435 19.58 7.5235 19.58H7.1235C3.9335 19.58 2.3335 18.79 2.3335 14.79V10.79C2.3335 7.86001 3.6835 6.27001 6.3735 6.04001C6.6135 6.01001 6.8635 6 7.1235 6H13.5235C16.7135 6 18.3135 7.60001 18.3135 10.79Z" fill="#A0B4BB"/>
<path d="M10.3232 14C9.76324 14 9.32324 13.55 9.32324 13C9.32324 12.45 9.77324 12 10.3232 12C10.8732 12 11.3232 12.45 11.3232 13C11.3232 13.55 10.8832 14 10.3232 14Z" fill="white"/>
<path d="M13.8232 14C13.2632 14 12.8232 13.55 12.8232 13C12.8232 12.45 13.2732 12 13.8232 12C14.3732 12 14.8232 12.45 14.8232 13C14.8232 13.55 14.3732 14 13.8232 14Z" fill="white"/>
<path d="M6.8335 14C6.2735 14 5.8335 13.55 5.8335 13C5.8335 12.45 6.2835 12 6.8335 12C7.3835 12 7.8335 12.45 7.8335 13C7.8335 13.55 7.3835 14 6.8335 14Z" fill="white"/>
<path d="M22.3135 6.79001V10.79C22.3135 13.73 20.9635 15.31 18.2735 15.54C18.3035 15.3 18.3135 15.05 18.3135 14.79V10.79C18.3135 7.60001 16.7135 6 13.5235 6H7.12354C6.86354 6 6.61354 6.01001 6.37354 6.04001C6.60354 3.35001 8.19354 2 11.1235 2H17.5235C20.7135 2 22.3135 3.60001 22.3135 6.79001Z" fill="white"/>
</svg>
