<svg width="25" height="24" viewBox="0 0 25 24" fill="none" xmlns="http://www.w3.org/2000/svg">
<path d="M16.9065 3.65002H8.42654C5.95654 3.65002 3.95654 5.66002 3.95654 8.12002V17.53C3.95654 19.99 5.96654 22 8.42654 22H16.8965C19.3665 22 21.3665 19.99 21.3665 17.53V8.12002C21.3765 5.65002 19.3665 3.65002 16.9065 3.65002Z" fill="#A0B4BB"/>
<path d="M15.0163 2H10.3163C9.27627 2 8.42627 2.84 8.42627 3.88V4.82C8.42627 5.86 9.26627 6.7 10.3063 6.7H15.0163C16.0563 6.7 16.8963 5.86 16.8963 4.82V3.88C16.9063 2.84 16.0563 2 15.0163 2Z" fill="white"/>
<path d="M15.6665 12.95H8.6665C8.2565 12.95 7.9165 12.61 7.9165 12.2C7.9165 11.79 8.2565 11.45 8.6665 11.45H15.6665C16.0765 11.45 16.4165 11.79 16.4165 12.2C16.4165 12.61 16.0765 12.95 15.6665 12.95Z" fill="white"/>
<path d="M13.0465 16.95H8.6665C8.2565 16.95 7.9165 16.61 7.9165 16.2C7.9165 15.79 8.2565 15.45 8.6665 15.45H13.0465C13.4565 15.45 13.7965 15.79 13.7965 16.2C13.7965 16.61 13.4565 16.95 13.0465 16.95Z" fill="white"/>
</svg>
