<svg width="25" height="24" viewBox="0 0 25 24" fill="none" xmlns="http://www.w3.org/2000/svg">
<path d="M16.9067 3.6499H8.42667C5.95667 3.6499 3.95667 5.6599 3.95667 8.1199V17.5299C3.95667 19.9899 5.96667 21.9999 8.42667 21.9999H16.8967C19.3667 21.9999 21.3667 19.9899 21.3667 17.5299V8.1199C21.3767 5.6499 19.3667 3.6499 16.9067 3.6499Z" fill="#56CCF2"/>
<path d="M15.0167 2H10.3167C9.27667 2 8.42667 2.84 8.42667 3.88V4.82C8.42667 5.86 9.26667 6.7 10.3067 6.7H15.0167C16.0567 6.7 16.8967 5.86 16.8967 4.82V3.88C16.9067 2.84 16.0567 2 15.0167 2Z" fill="#2F80ED"/>
<path d="M15.6667 12.9502H8.66667C8.25667 12.9502 7.91667 12.6102 7.91667 12.2002C7.91667 11.7902 8.25667 11.4502 8.66667 11.4502H15.6667C16.0767 11.4502 16.4167 11.7902 16.4167 12.2002C16.4167 12.6102 16.0767 12.9502 15.6667 12.9502Z" fill="#2F80ED"/>
<path d="M13.0467 16.9502H8.66667C8.25667 16.9502 7.91667 16.6102 7.91667 16.2002C7.91667 15.7902 8.25667 15.4502 8.66667 15.4502H13.0467C13.4567 15.4502 13.7967 15.7902 13.7967 16.2002C13.7967 16.6102 13.4567 16.9502 13.0467 16.9502Z" fill="#2F80ED"/>
</svg>
