<svg width="24" height="24" viewBox="0 0 24 24" fill="none" xmlns="http://www.w3.org/2000/svg">
<path opacity="0.4" d="M19.7899 4.21995C16.8299 1.26995 12.0299 1.26995 9.0899 4.21995C7.0199 6.26995 6.3999 9.21995 7.1999 11.8199L2.4999 16.5199C2.1699 16.8599 1.9399 17.5299 2.0099 18.0099L2.3099 20.1899C2.4199 20.9099 3.0899 21.5899 3.8099 21.6899L5.9899 21.9899C6.4699 22.0599 7.1399 21.8399 7.4799 21.4899L8.2999 20.6699C8.4999 20.4799 8.4999 20.1599 8.2999 19.9599L6.3599 18.0199C6.0699 17.7299 6.0699 17.2499 6.3599 16.9599C6.6499 16.6699 7.1299 16.6699 7.4199 16.9599L9.3699 18.9099C9.5599 19.0999 9.8799 19.0999 10.0699 18.9099L12.1899 16.7999C14.7799 17.6099 17.7299 16.9799 19.7899 14.9299C22.7399 11.9799 22.7399 7.16995 19.7899 4.21995ZM14.4999 11.9999C13.1199 11.9999 11.9999 10.8799 11.9999 9.49995C11.9999 8.11995 13.1199 6.99995 14.4999 6.99995C15.8799 6.99995 16.9999 8.11995 16.9999 9.49995C16.9999 10.8799 15.8799 11.9999 14.4999 11.9999Z" fill="#56CCF2"/>
<path d="M14.5 12C15.8807 12 17 10.8807 17 9.5C17 8.11929 15.8807 7 14.5 7C13.1193 7 12 8.11929 12 9.5C12 10.8807 13.1193 12 14.5 12Z" fill="#2F80ED"/>
</svg>
