<svg width="38" height="38" viewBox="0 0 38 38" fill="none" xmlns="http://www.w3.org/2000/svg">
<path opacity="0.8" d="M20.4251 3.99L20.3776 4.10083L15.7859 14.7567H11.2734C10.1967 14.7567 9.1834 14.9625 8.2334 15.3742L11.0042 8.75583L11.0676 8.61333L11.1626 8.36C11.2101 8.24917 11.2417 8.15416 11.2892 8.075C13.3634 3.2775 15.7067 2.185 20.4251 3.99Z" fill="#56CCF2"/>
<path d="M28.9592 15.0733C28.2467 14.8675 27.5026 14.7567 26.7267 14.7567H15.7859L20.3776 4.10082L20.4251 3.98999C20.6467 4.06916 20.8842 4.17999 21.1217 4.25916L24.6209 5.73166C26.5684 6.53916 27.9301 7.37832 28.7692 8.39166C28.9117 8.58166 29.0384 8.75582 29.1651 8.96166C29.3076 9.18332 29.4184 9.40499 29.4817 9.64249C29.5451 9.78499 29.5926 9.91166 29.6242 10.0542C30.0359 11.4 29.7826 13.0308 28.9592 15.0733Z" fill="#2F80ED"/>
<path opacity="0.4" d="M34.4533 22.4833V25.5708C34.4533 25.8875 34.4375 26.2042 34.4216 26.505C34.1208 32.0467 31.0333 34.8333 25.175 34.8333H12.825C12.4291 34.8333 12.065 34.8017 11.7008 34.7542C6.6658 34.4217 3.97413 31.73 3.6258 26.695C3.5783 26.315 3.54663 25.9508 3.54663 25.5708V22.4833C3.54663 19.3008 5.4783 16.5617 8.2333 15.3742C9.1833 14.9625 10.1966 14.7567 11.2733 14.7567H26.7266C27.5025 14.7567 28.2466 14.8675 28.9591 15.0733C32.1258 16.0392 34.4533 18.9842 34.4533 22.4833Z" fill="#56CCF2"/>
<path opacity="0.6" d="M11.0041 8.75586L8.2333 15.3742C5.4783 16.5617 3.54663 19.3009 3.54663 22.4834V17.8442C3.54663 13.3475 6.74496 9.59503 11.0041 8.75586Z" fill="#2F80ED"/>
<path opacity="0.6" d="M34.4534 17.8442V22.4834C34.4534 18.9842 32.1259 16.0392 28.9592 15.0734C29.7826 13.0309 30.0359 11.4 29.6242 10.0542C29.5926 9.91168 29.5451 9.78502 29.4817 9.64252C32.4426 11.1784 34.4534 14.2975 34.4534 17.8442Z" fill="#2F80ED"/>
</svg>
