<svg width="24" height="24" viewBox="0 0 24 24" fill="none" xmlns="http://www.w3.org/2000/svg">
<path opacity="0.4" d="M12 22C17.5228 22 22 17.5228 22 12C22 6.47715 17.5228 2 12 2C6.47715 2 2 6.47715 2 12C2 17.5228 6.47715 22 12 22Z" fill="#56CCF2"/>
<path d="M8.32001 16.02C8.13001 16.02 7.94001 15.95 7.79001 15.8C7.50001 15.51 7.50001 15.03 7.79001 14.74L14.34 8.19003C14.63 7.90003 15.11 7.90003 15.4 8.19003C15.69 8.48003 15.69 8.96003 15.4 9.25003L8.85001 15.8C8.70001 15.95 8.51001 16.02 8.32001 16.02Z" fill="#2F80ED"/>
<path d="M8.73001 7.66003C7.92001 7.66003 7.25 8.32005 7.25 9.14005C7.25 9.95005 7.91001 10.62 8.73001 10.62C9.54001 10.62 10.21 9.96005 10.21 9.14005C10.2 8.32005 9.54001 7.66003 8.73001 7.66003Z" fill="#2F80ED"/>
<path d="M15.27 13.39C14.46 13.39 13.79 14.05 13.79 14.87C13.79 15.68 14.45 16.35 15.27 16.35C16.08 16.35 16.75 15.69 16.75 14.87C16.75 14.05 16.09 13.39 15.27 13.39Z" fill="#2F80ED"/>
</svg>
